PathFileType	4	(X/Y/Z)	C:/Users/Carlo/Dropbox/Carlos/SARAH/CongressoMarcha2025/WorkshopOpenSim/C3D/Caso01/Walking 01.c3d.trc
DataRate	CameraRate	NumFrames	NumMarkers	Units	OrigDataRate	OrigDataStartFrame	OrigNumFrames
100.000000	100.000000	4	85	mm	100.000000	93	375
Frame#	Time	PELO			PELA			PELL			PELP			LFEO			LFEA			LFEL			LFEP			LTIO			LTIA			LTIL			LTIP			LFOO			LFOA			LFOL			LFOP			LTOO			LTOA			LTOL			LTOP			RFEO			RFEA			RFEL			RFEP			RTIO			RTIA			RTIL			RTIP			RFOO			RFOA			RFOL			RFOP			RTOO			RTOA			RTOL			RTOP			LASI			RASI			RPSI			LTHI			LKNE			LTIB			LANK			LHEE			LTOE			RTHI			RKNE			RTIB			RANK			RHEE			RTOE			LPSI			LHipAngles			LKneeAngles			LAbsAnkleAngle			LAnkleAngles			RHipAngles			RKneeAngles			RAnkleAngles			RAbsAnkleAngle			LPelvisAngles			RPelvisAngles			LFootProgressAngles			RFootProgressAngles			LHipPower			LKneePower			LAnklePower			RHipPower			RKneePower			RAnklePower			LGroundReactionForce			LNormalisedGRF			LAnkleForce			RAnkleForce			RKneeForce			LKneeForce			RHipForce			LHipForce			LGroundReactionMoment			LAnkleMoment			RAnkleMoment			RKneeMoment			LKneeMoment			RHipMoment			LHipMoment			
		X1	Y1	Z1	X2	Y2	Z2	X3	Y3	Z3	X4	Y4	Z4	X5	Y5	Z5	X6	Y6	Z6	X7	Y7	Z7	X8	Y8	Z8	X9	Y9	Z9	X10	Y10	Z10	X11	Y11	Z11	X12	Y12	Z12	X13	Y13	Z13	X14	Y14	Z14	X15	Y15	Z15	X16	Y16	Z16	X17	Y17	Z17	X18	Y18	Z18	X19	Y19	Z19	X20	Y20	Z20	X21	Y21	Z21	X22	Y22	Z22	X23	Y23	Z23	X24	Y24	Z24	X25	Y25	Z25	X26	Y26	Z26	X27	Y27	Z27	X28	Y28	Z28	X29	Y29	Z29	X30	Y30	Z30	X31	Y31	Z31	X32	Y32	Z32	X33	Y33	Z33	X34	Y34	Z34	X35	Y35	Z35	X36	Y36	Z36	X37	Y37	Z37	X38	Y38	Z38	X39	Y39	Z39	X40	Y40	Z40	X41	Y41	Z41	X42	Y42	Z42	X43	Y43	Z43	X44	Y44	Z44	X45	Y45	Z45	X46	Y46	Z46	X47	Y47	Z47	X48	Y48	Z48	X49	Y49	Z49	X50	Y50	Z50	X51	Y51	Z51	X52	Y52	Z52	X53	Y53	Z53	X54	Y54	Z54	X55	Y55	Z55	X56	Y56	Z56	X57	Y57	Z57	X58	Y58	Z58	X59	Y59	Z59	X60	Y60	Z60	X61	Y61	Z61	X62	Y62	Z62	X63	Y63	Z63	X64	Y64	Z64	X65	Y65	Z65	X66	Y66	Z66	X67	Y67	Z67	X68	Y68	Z68	X69	Y69	Z69	X70	Y70	Z70	X71	Y71	Z71	X72	Y72	Z72	X73	Y73	Z73	X74	Y74	Z74	X75	Y75	Z75	X76	Y76	Z76	X77	Y77	Z77	X78	Y78	Z78	X79	Y79	Z79	X80	Y80	Z80	X81	Y81	Z81	X82	Y82	Z82	X83	Y83	Z83	X84	Y84	Z84	X85	Y85	Z85	

94	0.93	159.5923309326172	952.9550781250005	-1403.744750976563	156.1409759521485	950.5973510742192	-1274.886108398438	288.4645996093751	951.4575195312505	-1400.320434570313	161.0264739990235	1081.851318359375	-1401.347900390625	221.3717498779298	531.343200683594	-1394.208374023438	216.4955444335939	539.136169433594	-973.347045898438	642.2968750000002	528.7784423828127	-1389.283935546875	224.0270385742189	952.224975585938	-1401.970947265625	200.6698150634767	97.91419219970709	-1486.278198242188	198.1625366210939	10.09904479980469	-1072.314086914063	623.3845214843752	78.07415771484378	-1487.926635742188	220.4196929931642	511.4101867675784	-1398.442749023438	217.8256835937501	86.26497650146487	-1331.744873046875	225.6934967041017	303.8402404785157	-1336.190185546875	435.3901977539065	78.29988861083987	-1336.525390625	212.886688232422	81.99641418457034	-1549.409912109376	219.4720001220704	87.68782806396487	-1259.18994140625	222.0945892333986	160.2128906250001	-1260.671752929688	291.9935302734376	85.0328063964844	-1260.783447265625	217.8256683349611	86.26494598388675	-1331.744873046875	73.36880493164065	570.9544677734377	-1212.3056640625	77.36930084228518	764.2265625000002	-829.0061645507817	502.0852966308596	549.6992797851565	-1206.062622070313	95.15766906738284	953.685180664063	-1405.518310546875	59.98405075073245	243.1834106445314	-1509.434326171875	75.05271911621097	-40.80578613281251	-1196.836669921875	482.1259765625002	243.8460693359376	-1529.181518554688	72.76396179199222	556.1434326171877	-1225.73193359375	40.58107757568361	137.6743469238282	-1396.74560546875	51.26029968261722	308.2167053222657	-1262.504150390625	257.5227966308595	125.2858200073243	-1398.265258789063	47.0416717529297	271.7688598632814	-1567.615234375001	38.42753982543947	92.976188659668	-1339.7890625	41.98731613159181	149.8236389160157	-1295.041870117188	110.7414550781251	88.84666442871097	-1340.295654296875	40.58105468750001	137.6743927001954	-1396.74560546875	267.2626342773439	1047.877563476563	-1351.96240234375	51.55766296386722	1050.384155273438	-1357.693969726563	110.6576919555665	1048.465209960938	-1553.149536132813	333.9946594238282	741.4425048828127	-1396.793823242188	279.3666992187501	530.9898071289065	-1393.529907226563	277.337615966797	292.1519470214845	-1444.609619140625	246.1194152832032	95.78101348876956	-1486.455322265625	200.9503021240236	58.77102279663089	-1556.695190429688	207.0358428955079	63.63162994384768	-1329.9521484375	-22.97392654418946	824.7485351562505	-1339.271484375	16.4447422027588	573.7766113281252	-1213.134643554688	-1.253963470458985	456.3239440917971	-1312.84814453125	13.53489685058594	243.1104736328126	-1507.261474609375	63.66279220581058	251.6119995117189	-1584.303833007813	48.40326309204104	118.6511993408204	-1405.551025390625	223.3768768310548	1056.85888671875	-1545.409179687501	-0.3322139382362367	-0.845731377601624	2.113758802413941	2.472553730010987	-0.3890199363231661	13.01857662200928	0	0	13.16036796569825	0.6116179823875429	-1.022379279136658	13.16249752044678	-1.62881886959076	1.593686342239381	27.88456916809083	-0.188899263739586	4.567830085754396	68.92267608642581	1.232174158096314	-3.865214347839357	4.02257013320923	0	0	4.013407707214357	-0.6373574733734133	1.534078598022462	1.065294981002808	0.6373574733734133	-1.534078598022462	1.065294981002808	2.071086883544923	-1.299612879753113	-91.12346649169925	-2.818171501159669	-1.703724145889283	-51.87600326538089	nan	nan	nan	nan	nan	nan	nan	nan	nan	0	-0.2269562780857087	0	0	0.2145911008119584	0	0	0.01155909337103367	0	nan	nan	nan	nan	nan	nan	nan	nan	nan	0.006036302540451292	-0.004394618328660728	-0.1360241174697877	-0.02169690281152726	0.1197781413793564	-0.1651840209960938	nan	nan	nan	-0.1285854578018189	0.6603462696075442	-0.226116105914116	nan	nan	nan	nan	nan	nan	nan	nan	nan	-1.894780674574553e-16	-0.6280660629272463	-19.09492874145509	-10.81893348693848	-0.9457664489746098	52.68750762939456	nan	nan	nan	49.12572860717776	13.57693099975587	115.0642242431641	nan	nan	nan	
95	0.9400000000000001	159.8530883789063	954.023559570313	-1387.203979492188	157.4991760253907	951.919311523438	-1258.316162109375	288.7373657226564	951.677856445313	-1384.888427734375	162.1603088378907	1082.91162109375	-1385.0576171875	220.6416931152345	531.3150024414065	-1390.307373046875	218.8904724121095	527.0072021484377	-968.740600585938	642.2148437500002	527.6445312500002	-1388.593627929688	224.2944488525392	952.8695678710942	-1385.984497070313	200.3972167968751	98.2464218139649	-1485.263427734375	204.9711456298829	7.362007141113285	-1071.739135742188	623.3503417968752	80.36240386962893	-1493.872192382813	219.711151123047	511.4091796875002	-1394.672119140625	217.7989807128907	86.02275085449222	-1330.80224609375	225.3655090332032	303.6240539550782	-1334.4169921875	435.3667907714846	78.37210083007815	-1335.936401367188	212.5416259765626	82.58966064453128	-1548.474487304688	219.5514221191407	87.167106628418	-1258.24462890625	222.0736236572267	159.7008666992188	-1259.449584960938	292.0740356445314	84.61685943603518	-1259.9560546875	217.7989349365236	86.02273559570315	-1330.802124023438	75.91275787353518	576.5825805664065	-1188.874145507813	87.40549468994143	775.8035278320317	-809.778930664063	503.7234497070315	553.9748535156252	-1189.963012695313	95.41175842285159	955.1775512695317	-1388.42333984375	62.39007949829104	231.8511505126954	-1466.6552734375	73.6241149902344	-33.6841278076172	-1137.668090820313	484.9713439941409	228.8524780273439	-1483.505615234375	75.30217742919925	561.0164794921877	-1201.417114257813	41.39483642578126	133.9123687744141	-1347.598022460938	52.30250549316409	312.6312255859376	-1224.471801757813	258.2473449707032	120.0007247924805	-1346.615966796875	50.08510589599612	256.7354125976564	-1526.646728515625	38.49807357788087	92.97132873535159	-1287.915161132813	42.13403320312501	152.5442657470704	-1246.873168945313	110.7822265625001	88.3340759277344	-1287.587890625	41.39479446411134	133.9123687744141	-1347.59814453125	268.6182556152345	1048.322265625	-1336.526977539063	52.84064483642581	1052.24951171875	-1340.403686523438	109.9735794067383	1049.432861328125	-1536.261840820313	333.2452392578126	741.1333618164065	-1387.695556640625	278.6390075683595	530.8100585937502	-1390.071655273438	276.9042053222657	292.6918029785157	-1443.374389648438	245.8471984863282	96.32463073730474	-1486.1884765625	200.8468017578126	58.99568176269534	-1556.579956054688	207.0099487304689	63.53876495361331	-1329.845703125	-22.34346961975098	828.8356323242192	-1318.45849609375	18.99236679077149	579.5904541015627	-1188.729125976563	1.210754275321961	456.5746154785159	-1283.18505859375	15.92816543579102	232.1808319091798	-1464.802490234375	66.65021514892581	235.4762115478517	-1541.955078125001	49.15182876586917	114.3698959350587	-1355.160522460938	222.7192687988282	1057.413208007813	-1529.52587890625	-0.5355698466300967	-0.8017710447311406	0.3567691445350648	2.176993131637574	-0.9541806578636174	11.76664924621582	0	0	13.31756687164307	0.4102388322353365	-0.1791653037071229	13.31761837005616	-1.206467390060425	1.96319615840912	28.75152015686037	0.6977913379669192	3.306935071945192	66.60284423828128	1.2491455078125	-3.943930864334108	4.346902370452883	0	0	4.336587429046633	-1.0254145860672	1.046324968338013	0.9540227055549626	1.0254145860672	-1.046324968338013	0.9540227055549626	1.99181890487671	-1.383402585983277	-90.90357971191409	-2.879537820816041	-2.291985511779786	-55.55081939697268	nan	nan	nan	nan	nan	nan	nan	nan	nan	0	-0.1999436020851136	0	0	0.2153083533048631	0	0	0.009320664219558242	0	nan	nan	nan	nan	nan	nan	nan	nan	nan	0.007140497677028183	-0.009651962667703632	-0.1528652012348176	-0.03428125381469728	0.1612430810928345	-0.1709543466567994	nan	nan	nan	-0.1427335441112519	0.6353615522384646	-0.2153999358415605	nan	nan	nan	nan	nan	nan	nan	nan	nan	-3.789561349149106e-16	-1.520214319229127	-19.84528923034669	-11.04786682128907	-1.843603491783143	46.59579086303712	nan	nan	nan	54.61505508422854	12.0792636871338	115.4278106689454	nan	nan	nan	
96	0.9500000000000001	160.1386260986329	954.5612792968755	-1370.657348632813	158.9064483642579	952.666625976563	-1241.750732421875	289.0205688476564	951.3876953125005	-1369.472045898438	163.2942962646485	1083.434814453125	-1368.733032226563	219.8943634033204	531.157653808594	-1386.2939453125	221.0366058349611	514.8532714843752	-964.434204101563	642.0430908203127	526.5200805664065	-1387.6162109375	224.5795135498048	952.9934082031255	-1370.003173828125	200.0607147216798	98.56112670898443	-1484.259521484375	211.4509582519532	4.540527343750002	-1071.38916015625	623.0781860351565	82.63099670410159	-1499.557373046875	218.9830780029298	511.2812194824221	-1390.795166015625	217.7707061767579	85.75836944580081	-1329.880249023438	225.0181884765626	303.3828430175782	-1332.6572265625	435.3391723632815	78.44165039062503	-1335.45263671875	212.1085510253907	83.16931152343753	-1547.553955078126	219.6581268310548	86.62138366699222	-1257.322143554688	222.0738983154298	159.1628875732422	-1258.247802734375	292.1809692382814	84.18252563476565	-1259.179565429688	217.7707672119142	85.75836944580081	-1329.880126953125	78.217399597168	581.2006835937502	-1166.515625	97.71742248535162	785.2540893554692	-791.2821655273442	504.9871215820315	556.5200805664065	-1175.2724609375	95.69777679443362	956.129028320313	-1371.3115234375	64.86647796630862	220.0883026123048	-1423.01318359375	72.15706634521487	-25.08705139160158	-1078.220825195313	487.749694824219	213.9203033447267	-1436.340942382813	77.6148376464844	564.9025878906252	-1178.091796875	42.33691406250001	130.2302703857422	-1298.01171875	53.32595825195315	316.5298461914064	-1186.696044921875	259.0878295898439	115.234848022461	-1294.312744140625	53.18983840942386	241.0774230957032	-1484.598510742188	38.71926116943361	93.28122711181643	-1235.816284179688	42.3822364807129	155.3810729980469	-1198.711059570313	110.9695434570313	88.28277587890628	-1234.583251953125	42.33692169189455	130.2302703857422	-1298.011840820313	269.977508544922	1048.232055664063	-1321.086547851563	54.1501159667969	1053.546508789063	-1323.071411132813	109.2888183593751	1049.924438476563	-1519.336303710938	332.4918212890626	740.5803833007815	-1378.504760742188	277.8905639648439	530.5205078125002	-1386.475463867188	276.4483032226564	293.1813354492189	-1442.046997070313	245.4988098144532	96.85000610351568	-1485.902587890625	200.7154693603517	59.21290969848636	-1556.439575195313	206.9824523925782	63.42446136474612	-1329.735473632813	-21.72702789306641	832.3204956054692	-1297.881591796875	21.32441139221192	584.4907836914065	-1165.34814453125	3.498453855514528	455.9319458007815	-1254.01171875	18.39448165893555	220.7661132812501	-1421.548583984375	69.76151275634768	218.8112182617189	-1498.407470703125	50.04109954833987	110.2220611572266	-1304.250244140625	222.0500793457032	1057.482788085938	-1513.61279296875	-0.7532799243927006	-0.7358708977699282	-1.363438606262207	1.906822562217713	-1.506343841552735	10.54890823364258	0	0	13.49154090881348	0.2226862460374833	0.6062334775924685	13.49230861663819	-0.8526455163955693	2.402310609817506	29.48732376098634	1.651542782783509	1.946655750274659	63.9765434265137	1.258358955383301	-3.986658573150637	4.589167118072512	0	0	4.578046321868898	-1.402525544166565	0.5477463006973269	0.8554490804672246	1.402525544166565	-0.5477463006973269	0.8554490804672246	1.90789020061493	-1.489948391914368	-90.68144989013675	-2.902331113815309	-2.862801313400269	-59.28636169433597	nan	nan	nan	nan	nan	nan	nan	nan	nan	0	-0.1651024669408799	0	0	0.2098411768674852	0	0	0.006943235173821453	0	nan	nan	nan	nan	nan	nan	nan	nan	nan	0.006644654087722305	-0.01445202715694905	-0.1720173209905625	-0.04712665826082232	0.2129698097705842	-0.180023416876793	nan	nan	nan	-0.1583604216575623	0.6311766505241396	-0.1937626451253892	nan	nan	nan	nan	nan	nan	nan	nan	nan	1.894780674574553e-16	-2.04625153541565	-20.95881843566895	-10.37226295471192	-2.381686210632325	40.84150695800783	nan	nan	nan	60.0064392089844	10.02915287017823	110.6666793823243	nan	nan	nan	
97	0.96	160.4495544433594	954.5551757812505	-1354.104248046875	160.3587188720704	952.803588867188	-1225.189697265625	289.3148803710939	950.5855102539067	-1354.0673828125	164.4183654785157	1083.40869140625	-1352.350708007813	219.143035888672	530.8499145507815	-1382.094970703125	223.0042877197267	502.7254943847659	-960.3376464843755	641.7979736328127	525.3795166015627	-1386.329223632813	224.8827972412111	952.5893554687505	-1354.024291992188	199.6566772460939	98.85455322265631	-1483.273559570313	217.5097808837892	1.55303192138672	-1071.270141601563	622.5854492187502	84.84442901611331	-1504.908813476563	218.2479248046876	511.0065612792971	-1386.742553710938	217.7414093017579	85.4706726074219	-1328.986938476563	224.655242919922	303.1151428222657	-1330.922729492188	435.3072814941409	78.50507354736331	-1335.087890625	211.5818481445314	83.73037719726565	-1546.655639648438	219.7946166992189	86.05078125000003	-1256.4306640625	222.0992584228517	158.5989074707032	-1257.075927734375	292.3165588378907	83.72888946533206	-1258.46435546875	217.7413940429689	85.47066497802737	-1328.986938476563	80.25520324707034	584.7309570312502	-1145.209106445313	108.1014099121094	792.5056152343755	-773.454956054688	505.840759277344	557.367370605469	-1161.7939453125	96.01629638671881	956.5209960937505	-1354.184448242188	67.3959655761719	208.1053009033204	-1378.480224609375	70.51738739013675	-14.80395507812501	-1018.756225585938	490.4079284667971	199.3110198974611	-1387.600341796875	79.674919128418	567.7353515625002	-1155.735717773438	43.42443466186525	126.7733993530274	-1248.027587890625	54.31713867187503	319.9627990722657	-1149.140258789063	260.0679016113282	111.2079544067383	-1241.482299804688	56.32686614990237	225.033660888672	-1441.4130859375	39.12363052368165	94.01999664306643	-1183.565795898438	42.75453186035158	158.416488647461	-1150.603271484375	111.338119506836	88.8315124511719	-1181.384033203125	43.42444229125978	126.7734375000001	-1248.027587890625	271.332000732422	1047.595703125	-1305.620727539063	55.47634124755862	1054.2451171875	-1305.6826171875	108.6016693115235	1049.949584960938	-1502.364379882813	331.7561340332032	739.773620605469	-1369.194091796875	277.1352539062501	530.099304199219	-1382.675903320313	275.9823303222657	293.5996093750001	-1440.588500976563	245.0724182128907	97.35009002685553	-1485.5966796875	200.5467681884767	59.42010498046878	-1556.273559570313	206.9532775878907	63.28499984741214	-1329.617919921875	-21.12321472167969	835.137084960938	-1277.568115234375	23.41561508178712	588.3855590820315	-1142.994018554688	5.588617801666262	454.412780761719	-1225.315063476563	20.91679954528809	209.0715789794923	-1377.47802734375	72.96692657470706	201.8893585205079	-1453.642333984375	51.09442138671878	106.3893203735352	-1252.894287109375	221.3680572509767	1057.083862304688	-1497.65576171875	-0.9814428091049199	-0.6569904685020449	-3.029119968414308	1.661868691444398	-2.027308940887452	9.384466171264652	0	0	13.69406414031983	0.05173091590404513	1.321933031082154	13.6977825164795	-0.5700664520263674	2.893376588821412	30.09854698181154	2.636799573898316	0.4643055200576784	61.04347610473636	1.253492593765259	-3.964091539382936	4.739226818084719	0	0	4.72786331176758	-1.764046669006349	0.04042435437440874	0.7796833515167241	1.764046669006349	-0.04042435437440874	0.7796833515167241	1.820140004158021	-1.620863437652589	-90.45807647705081	-2.878381729125977	-3.403992414474489	-63.06462478637698	nan	nan	nan	nan	nan	nan	nan	nan	nan	0	-0.1269117146730424	0	0	0.1939344853162767	0	0	0.0041945050470531	0	nan	nan	nan	nan	nan	nan	nan	nan	nan	0.00437522027641535	-0.01977832987904549	-0.1935867071151735	-0.05994213372468951	0.2757819592952729	-0.1931367069482804	nan	nan	nan	-0.1744342744350434	0.6497012972831728	-0.160751685500145	nan	nan	nan	nan	nan	nan	nan	nan	nan	-9.473903637570559e-16	-2.170159101486207	-22.47221565246583	-8.574081420898441	-2.524086952209474	34.64186096191408	nan	nan	nan	65.49748229980472	7.296866893768314	101.6672515869141	nan	nan	nan	
